<svg width="24" height="24" viewBox="0 0 24 24" fill="none" xmlns="http://www.w3.org/2000/svg">
<path d="M6.2 6.8C7.5 3.9 10.5 2 13.7 2C17.4 2 20.6 4.4 21.7 7.9C22.8 11.4 21.4 15.2 18.4 17.2C15.4 19.2 11.3 19 8.5 16.7L3.5 21.7C3.3 21.9 3.1 22 2.8 22C2.6 22 2.4 21.9 2.2 21.8C2.1 21.6 2 21.4 2 21.2C2 21 2.1 20.8 2.2 20.6L7.2 15.6C5.2 13.1 4.8 9.7 6.2 6.8ZM7 10.3C7 14 10 17 13.7 17C15.5 17 17.2 16.3 18.4 15.1C19.6 13.9 20.3 12.2 20.3 10.4C20.3 6.7 17.3 3.7 13.6 3.7C9.9 3.7 7 6.6 7 10.3Z" fill="black"/>
</svg>
