<svg
        width="44"
        height="42"
        viewBox="0 0 44 42"
        fill="none"
        xmlns="http://www.w3.org/2000/svg"
      >
        <path
          fill-rule="evenodd"
          clip-rule="evenodd"
          d="M21.9088 12.6151C22.5294 12.7137 22.6549 12.5839 22.7372 11.9771C22.8718 11.0515 23.1927 9.49075 23.9426 7.89093C24.7545 6.16575 26.0475 4.27014 27.856 3.00088C29.3792 1.94568 31.8758 0.776955 33.8086 0.35303C35.3897 0.00141751 36.8711 -0.0656972 38.1421 0.0558978C40.7543 0.29855 42.1992 1.06799 42.9245 2.06387C43.1935 2.43592 43.3406 2.89488 43.3467 3.19201C43.3674 3.68735 43.1581 4.33377 42.4695 4.96835C41.7993 5.57964 40.3699 6.35303 38.4205 7.03027C36.397 7.72633 33.6318 8.46136 30.8755 9.11665C28.5676 9.66593 27.2544 10.1334 26.1579 10.5175C24.3341 11.1563 23.7845 13.0318 24.921 13.6046C26.5635 14.4322 27.5909 15.2977 28.4664 16.0335C29.7797 17.1465 31.3048 18.4561 33.1984 20.818C34.9139 22.9839 37.7203 27.1176 38.7304 31.1301C39.8484 35.5352 39.1498 39.7128 36.7382 40.8794C34.3737 42.025 31.2227 40.3718 29.0108 38.0013C26.9065 35.7515 25.4377 33.1015 24.0567 29.014C22.859 25.5005 22.3735 20.4058 22.3755 17.7407C22.3755 16.8528 22.3616 16.6633 22.3963 15.8615C22.4766 15.1629 20.6539 14.5849 18.695 15.8876C16.4657 17.37 14.2817 20.0565 12.9923 21.6167C12.4314 22.2977 11.6711 23.2985 10.8654 24.3481C9.80331 25.7249 8.63092 27.1587 7.56213 27.9603C5.95365 29.172 3.36941 29.673 1.55928 28.3385C0.553087 27.5951 0.0174784 26.1916 0.000659301 24.7646C-0.0143391 23.76 0.226676 22.8511 0.712001 21.9546C1.31835 20.854 2.31666 19.6729 3.8993 18.3202C5.53586 16.9302 8.14837 15.358 10.7664 14.271C14.7598 12.6097 19.0595 12.0869 21.9088 12.6151Z"
          fill="#19AAF8"
        />
      </svg>